<svg xmlns="http://www.w3.org/2000/svg" width="17.036" height="21.045" viewBox="0 0 17.036 21.045">
  <g transform="translate(-122.596 -760.416)">
    <path id="fridge-svgrepo-com" d="M18.031,2H6A2.006,2.006,0,0,0,4,4V9.016H8.009V6.009h2V9.016H20.036V4A2.006,2.006,0,0,0,18.031,2ZM10.013,15.029h-2V10.018H4V20.04a2.006,2.006,0,0,0,2,2H18.031a2.006,2.006,0,0,0,2-2V10.018H10.013Z" transform="translate(119.096 758.916)" fill="#faf5ed"/>
    <path id="fridge-svgrepo-com_-_Outline" data-name="fridge-svgrepo-com - Outline" d="M6,1.5H18.031a2.507,2.507,0,0,1,2.5,2.5V9.516H9.513V6.509h-1V9.516H3.5V4A2.507,2.507,0,0,1,6,1.5ZM19.536,8.516V4a1.506,1.506,0,0,0-1.5-1.5H6A1.506,1.506,0,0,0,4.5,4V8.516H7.509V5.509h3V8.516ZM3.5,9.518H8.509v5.011h1V9.518H20.536V20.04a2.507,2.507,0,0,1-2.5,2.5H6a2.507,2.507,0,0,1-2.5-2.5Zm4.009,1H4.5V20.04a1.506,1.506,0,0,0,1.5,1.5H18.031a1.506,1.506,0,0,0,1.5-1.5V10.518H10.513v5.011h-3Z" transform="translate(119.096 758.916)" fill="#faf5ed"/>
  </g>
</svg>
