<svg xmlns="http://www.w3.org/2000/svg" width="22.638" height="19.625" viewBox="0 0 22.638 19.625">
  <g transform="translate(-246.939 -761.212)">
    <path id="heart-svgrepo-com" d="M2,9.616c0,5.261,4.349,8.065,7.532,10.574,1.123.886,2.205,1.719,3.287,1.719s2.164-.834,3.287-1.719c3.183-2.509,7.532-5.313,7.532-10.574S17.687.624,12.819,5.682C7.951.624,2,4.355,2,9.616Z" transform="translate(245.439 758.428)" fill="#faf5ed"/>
    <path id="heart-svgrepo-com_-_Outline" data-name="heart-svgrepo-com - Outline" d="M7.844,2.785h0a7.255,7.255,0,0,1,4.974,2.193,7.254,7.254,0,0,1,4.974-2.193,6.609,6.609,0,0,1,6.344,6.831,9.5,9.5,0,0,1-2.275,6.151,26.29,26.29,0,0,1-4.526,4.1c-.321.247-.624.48-.921.715-1.139.9-2.317,1.827-3.6,1.827s-2.457-.929-3.6-1.827c-.3-.235-.6-.468-.921-.715a26.29,26.29,0,0,1-4.526-4.1A9.5,9.5,0,0,1,1.5,9.616,7.055,7.055,0,0,1,3.354,4.8,6.085,6.085,0,0,1,7.844,2.785ZM12.819,6.4l-.36-.374A6.486,6.486,0,0,0,7.844,3.785h0A5.1,5.1,0,0,0,4.088,5.476,6.058,6.058,0,0,0,2.5,9.616c0,4.52,3.406,7.144,6.411,9.46.323.249.628.484.93.722,1.005.792,2.045,1.612,2.977,1.612S14.791,20.59,15.8,19.8c.3-.238.607-.473.93-.722,3.005-2.315,6.411-4.94,6.411-9.46a5.61,5.61,0,0,0-5.344-5.831,6.484,6.484,0,0,0-4.614,2.244Z" transform="translate(245.439 758.428)" fill="#faf5ed"/>
  </g>
</svg>
