<svg xmlns="http://www.w3.org/2000/svg" width="21.045" height="21.045" viewBox="0 0 21.045 21.045">
  <g transform="translate(-182.563 -760.416)">
    <path id="home-2-svgrepo-com" d="M2.52,7.836C2,8.786,2,9.933,2,12.227v1.525c0,3.91,0,5.864,1.174,7.079s3.064,1.215,6.844,1.215h4.009c3.78,0,5.67,0,6.844-1.215s1.174-3.169,1.174-7.079V12.227c0-2.294,0-3.44-.52-4.391S20.053,6.3,18.152,5.115l-2-1.244C14.138,2.624,13.133,2,12.022,2S9.907,2.624,7.9,3.871l-2,1.244C3.991,6.3,3.041,6.885,2.52,7.836Zm8.75,10.2a.752.752,0,0,0,1.5,0V15.029a.752.752,0,1,0-1.5,0Z" transform="translate(181.063 758.916)" fill="#faf5ed" fill-rule="evenodd"/>
    <path id="home-2-svgrepo-com_-_Outline" data-name="home-2-svgrepo-com - Outline" d="M12.022,1.5c1.253,0,2.3.65,4.389,1.946l2,1.244C20.389,5.915,21.379,6.53,21.963,7.6s.582,2.255.582,4.631v1.524c0,4.039,0,6.067-1.315,7.426s-3.287,1.367-7.2,1.367H10.018c-3.916,0-5.882,0-7.2-1.367S1.5,17.79,1.5,13.751V12.227c0-2.376,0-3.568.582-4.631S3.656,5.915,5.629,4.69l2-1.244C9.721,2.15,10.769,1.5,12.022,1.5Zm2,20.045c3.634,0,5.457,0,6.484-1.062s1.034-2.961,1.034-6.731V12.227c0-2.205,0-3.312-.459-4.151s-1.373-1.4-3.2-2.536l-2-1.244C12.031,1.9,12.014,1.9,8.161,4.3l-2,1.244c-1.824,1.132-2.74,1.7-3.2,2.536S2.5,10.021,2.5,12.227v1.524c0,3.77,0,5.662,1.034,6.731s2.851,1.062,6.484,1.062Zm-2-7.767a1.253,1.253,0,0,1,1.252,1.252v3.007a1.252,1.252,0,0,1-2.5,0V15.029A1.253,1.253,0,0,1,12.022,13.777Zm0,4.51a.252.252,0,0,0,.252-.252V15.029a.252.252,0,1,0-.5,0v3.007A.252.252,0,0,0,12.022,18.287Z" transform="translate(181.063 758.916)" fill="#faf5ed"/>
  </g>
</svg>
