<svg xmlns="http://www.w3.org/2000/svg" width="10.926" height="12.599" viewBox="0 0 10.926 12.599">
  <g id="Group_55" data-name="Group 55" transform="translate(-247 -322.401)">
    <g id="Group_13" data-name="Group 13" transform="translate(247 322.401)">
      <g id="leaf-svgrepo-com" transform="translate(0 0)">
        <path id="Path_4" data-name="Path 4" d="M35.781,8.583a7.952,7.952,0,0,1,4.572-6.33A6.8,6.8,0,0,0,38.092,0a7.163,7.163,0,0,0-2.119,11.395A7.92,7.92,0,0,1,35.781,8.583Z" transform="translate(-34.009)" fill="#faf5ed"/>
        <path id="Path_5" data-name="Path 5" d="M142.549,92.96a7.171,7.171,0,0,0-6.8,10.241c.053.007.1.016.156.021a6.833,6.833,0,0,0,6.641-10.262Zm-3.655,6.2c-1.195,1.851-2.306,3.259-2.482,3.146s.652-1.705,1.848-3.556,2.307-3.259,2.482-3.146S140.09,97.311,138.894,99.161Z" transform="translate(-132.571 -90.665)" fill="#faf5ed"/>
      </g>
    </g>
  </g>
</svg>
