<svg xmlns="http://www.w3.org/2000/svg" width="22.474" height="17.064" viewBox="0 0 22.474 17.064">
  <path id="list-ul-alt-svgrepo-com" d="M8.409,6.042H22.474M8.409,12.533H22.474M8.409,19.024H22.474M3.541,6.041h.011m-.011,6.491h.011m-.011,6.491h.011m.53-12.983A.541.541,0,1,1,3.541,5.5.541.541,0,0,1,4.082,6.041Zm0,6.491a.541.541,0,1,1-.541-.541A.541.541,0,0,1,4.082,12.532Zm0,6.491a.541.541,0,1,1-.541-.541A.541.541,0,0,1,4.082,19.024Z" transform="translate(-1.5 -4)" fill="#faf5ed" stroke="#faf5ed" stroke-linecap="round" stroke-linejoin="round" stroke-width="3"/>
</svg>
